<svg role="img" viewBox="0 0 24 24" xmlns="http://www.w3.org/2000/svg">
  <title>Next.js</title>
  <path d="M11.5725 0c-.1763 0-.3098.0013-.3584.0067-.0516.0053-.2159.021-.3636.0328-3.4088.3073-6.6017 2.1463-8.624 4.9728C1.1004 6.584.3802 8.3666.1082 10.255c-.0962.659-.108.8537-.108 1.7474s.012 1.0884.108 1.7476c.652 4.506 3.8591 8.2919 8.2087 9.6945.7789.2511 1.6.4223 2.5337.5255.3636.04 1.9354.04 2.299 0 1.6117-.1783 2.9772-.577 4.3237-1.2643.2065-.1056.2464-.1337.2183-.1573-.0188-.0139-.8987-1.1938-1.9543-2.62l-1.919-2.592-2.4047-3.5583c-1.3231-1.9564-2.4117-3.556-2.4211-3.556-.0094-.0026-.0187 1.5787-.0235 3.509-.0067 3.3802-.0093 3.5162-.0516 3.596-.061.115-.108.1618-.2064.2134-.075.0374-.1408.0445-.5429.0445h-.4570l-.0803-.0516c-.0516-.0336-.0939-.0822-.1213-.1201-.0146-.0212-.0094-1.3157.0188-4.2857l.0375-4.2488.0563-.0687c.0235-.0299.0797-.0895.1213-.1255.0616-.0594.0797-.0648.2265-.0648.1641 0 .2226.0077.4570.0929.2799.1012.4758.2226.7456.4661.2424.2174.4758.4274.7456.6923 1.3231 1.3231 2.6462 2.6462 3.9693 3.9693l2.4047 2.4047 1.9543 1.9543c1.0749 1.0749 1.9543 1.9543 1.9543 1.9543.0188 0 .0375-.0094.0375-.0188 0-.0094-.0188-.0375-.0375-.0563-.0188-.0188-.0375-.0375-.0563-.0563l-1.9543-1.9543-2.4047-2.4047c-1.3231-1.3231-2.6462-2.6462-3.9693-3.9693-.2698-.2649-.5054-.4849-.7456-.6923-.2799-.2435-.4758-.3649-.7456-.4661-.2344-.0852-.2929-.0929-.4570-.0929-.1468 0-.1649.0054-.2265.0648-.0416.036-.0978.0956-.1213.1255l-.0563.0687.0375 4.2488c.0282 2.97.0334 4.2645.0188 4.2857-.0274.0379-.0697.0865-.1213.1201l-.0803.0516h-.4570c-.4021 0-.4679-.0071-.5429-.0445-.0954-.0516-.1454-.0984-.2064-.2134-.0423-.0798-.0449-.2158-.0516-.596-.0048-1.9303-.0141-3.5116-.0235-3.509-.0094 0-1.098 1.5996-2.4211 3.556l-2.4047 3.5583-1.919 2.592c-1.0556 1.4262-1.9355 2.6061-1.9543 2.62-.0281.0236.0118.0517.2183.1573 1.3465.6873 2.712 1.0860 4.3237 1.2643.3636.04 1.9354.04 2.299 0 .9337-.1032 1.7548-.2744 2.5337-.5255 4.3496-1.4026 7.5567-5.1885 8.2087-9.6945.096-.6592.108-1.0884.108-1.7476s-.012-1.0884-.108-1.7474C23.2302 5.1958 20.2234 1.9143 16.0477.6188 15.2688.3677 14.4477.1965 13.514.0933 13.1504.0533 11.7263.0013 11.5725 0z" fill="#000000"/>
</svg>