<svg role="img" viewBox="0 0 24 24" xmlns="http://www.w3.org/2000/svg">
  <title>PostgreSQL</title>
  <path d="M23.5594 14.7228a.5269.5269 0 0 0-.0563-.1191c-.139-.2632-.4768-.3418-.7553-.1766a7.1865 7.1865 0 0 1-.7574.3977c-.0445.0204-.0893.0408-.1339.0615 0-.0218.0003-.0437.0006-.0653.0018-.1768.0035-.3694-.0668-.5192-.0743-.1578-.2021-.2734-.3673-.3235a1.5876 1.5876 0 0 0-.5477-.0607c-.0395-.0014-.0793-.0024-.1188-.0024-.0596 0-.1195.0017-.1788.0034-.0588.0017-.1172.0035-.1753.0035a.5608.5608 0 0 0-.5618.5618v.0002c0 .2286.1294.4361.3253.5299.1041.05.2184.0759.3311.1013.1028.0231.2044.0458.2987.0773.0469.0156.0922.0347.1358.0538.0311.0136.0615.0273.0906.0406-.0012.0175-.0026.0348-.004.052-.0083.1048-.0176.2097-.0176.3146 0 .7755.2318 1.5126.6502 2.0668.2028.2688.4509.4973.7327.6816.1173.0767.2418.1458.3718.2133.0653.0339.1315.0676.1977.1016.0662.034.1324.0683.1977.1016.1301.0675.2545.1366.3718.2133.2818.1843.5299.4128.7327.6816.4184.554.6502 1.2913.6502 2.0668 0 .1049-.0093.2098-.0176.3146-.0014.0172-.0028.0345-.004.052.0291.0133.0595.027.0906.0406.0436.0191.0889.0382.1358.0538.0943.0315.196.0542.2987.0773.1127.0254.227.0513.3311.1013.1959.0938.3253.3013.3253.5299v.0002a.5608.5608 0 0 0 .5618.5618c.0581 0 .1165-.0018.1753-.0035.0593-.0017.1192-.0034.1788-.0034.0395 0 .0793.001.1188.0024.1877.0067.3754.0067.5477.0607.1652.0501.293.1657.3673.3235.0703.1498.0686.3424.0668.5192-.0003.0216-.0006.0435-.0006.0653.0446-.0207.0894-.0411.1339-.0615.2688-.1227.5291-.2662.7574-.3977.2785-.1652.6163-.0866.7553.1766a.5269.5269 0 0 0 .0563.1191c.1969.3722.2706.7918.2706 1.2137 0 .6126-.1357 1.2274-.4029 1.7929-.267.5655-.6553 1.0816-1.1543 1.4397-.2495.1791-.5214.3184-.8063.4141-.1425.0479-.2886.0887-.4374.1248-.0744.0181-.1497.0348-.2256.0510-.0379.0081-.0761.0158-.1143.0232-.0191.0037-.0383.0073-.0575.0107-.0096.0017-.0192.0033-.0288.0049-.0048.0008-.0096.0016-.0144.0023-.0024.0004-.0048.0007-.0072.001-.0012.0001-.0024.0003-.0036.0004-.0006 0-.0012.0001-.0018.0001s-.0012-.0001-.0018-.0001c-.0012-.0001-.0024-.0003-.0036-.0004-.0024-.0003-.0048-.0006-.0072-.001-.0048-.0007-.0096-.0015-.0144-.0023-.0096-.0016-.0192-.0032-.0288-.0049-.0192-.0034-.0384-.007-.0575-.0107-.0382-.0074-.0764-.0151-.1143-.0232-.0759-.0162-.1512-.0329-.2256-.051-.1488-.0361-.2949-.0769-.4374-.1248-.2849-.0957-.5568-.235-.8063-.4141-.4991-.3581-.8873-.8742-1.1543-1.4397-.267-.5655-.4029-1.1803-.4029-1.7929 0-.4219.0737-.8415.2706-1.2137zM8.1558 6.9069a.9596.9596 0 0 0-.9596.9596c0 .5304.4292.9596.9596.9596s.9596-.4292.9596-.9596a.9596.9596 0 0 0-.9596-.9596zm6.9404 0a.9596.9596 0 0 0-.9596.9596c0 .5304.4292.9596.9596.9596s.9596-.4292.9596-.9596a.9596.9596 0 0 0-.9596-.9596zM12 0C5.3726 0 0 5.3726 0 12s5.3726 12 12 12 12-5.3726 12-12S18.6274 0 12 0zm0 1.0909c6.0267 0 10.9091 4.8824 10.9091 10.9091S18.0267 22.9091 12 22.9091 1.0909 18.0267 1.0909 12 5.9733 1.0909 12 1.0909z" fill="#336791"/>
</svg>