<svg width="500" height="400" viewBox="0 0 500 400" fill="none" xmlns="http://www.w3.org/2000/svg">
  <!-- Background with subtle pattern -->
  <rect width="500" height="400" rx="20" fill="#F8FAFC" />
  <mask id="mask0" style="mask-type:alpha" maskUnits="userSpaceOnUse" x="0" y="0" width="500" height="400">
    <rect width="500" height="400" rx="20" fill="white" />
  </mask>
  <g mask="url(#mask0)">
    <path d="M-50 100C0 50 100 150 150 100C200 50 250 150 300 100C350 50 450 150 500 100" stroke="#E2E8F0" stroke-width="10" />
    <path d="M-50 200C0 150 100 250 150 200C200 150 250 250 300 200C350 150 450 250 500 200" stroke="#E2E8F0" stroke-width="10" />
    <path d="M-50 300C0 250 100 350 150 300C200 250 250 350 300 300C350 250 450 350 500 300" stroke="#E2E8F0" stroke-width="10" />
  </g>
  
  <!-- Desk -->
  <rect x="50" y="250" width="400" height="20" rx="5" fill="#334155" />
  <rect x="70" y="270" width="360" height="10" rx="2" fill="#1E293B" />
  <rect x="80" y="280" width="340" height="120" rx="2" fill="#0F172A" />
  
  <!-- Person sitting at desk -->
  <!-- Chair -->
  <rect x="200" y="300" width="100" height="20" rx="5" fill="#475569" />
  <rect x="210" y="320" width="80" height="80" rx="5" fill="#334155" />
  
  <!-- Person -->
  <!-- Body -->
  <rect x="225" y="250" width="50" height="70" rx="10" fill="#6366F1" />
  
  <!-- Head -->
  <circle cx="250" cy="220" r="30" fill="#F8FAFC" />
  
  <!-- Hair -->
  <path d="M220 210C220 210 230 180 250 180C270 180 280 210 280 210" fill="#1E293B" />
  <path d="M220 210C220 210 230 180 250 180C270 180 280 210 280 210" stroke="#1E293B" stroke-width="20" stroke-linecap="round" />
  
  <!-- Face -->
  <ellipse cx="240" cy="215" rx="5" ry="4" fill="#0F172A" />
  <ellipse cx="260" cy="215" rx="5" ry="4" fill="#0F172A" />
  <path d="M240 230C240 230 245 235 250 235C255 235 260 230 260 230" stroke="#0F172A" stroke-width="2" stroke-linecap="round" />
  
  <!-- Arms -->
  <path d="M225 270L180 290" stroke="#6366F1" stroke-width="15" stroke-linecap="round" />
  <path d="M275 270L320 290" stroke="#6366F1" stroke-width="15" stroke-linecap="round" />
  <circle cx="180" cy="290" r="10" fill="#F8FAFC" />
  <circle cx="320" cy="290" r="10" fill="#F8FAFC" />
  
  <!-- Laptop -->
  <rect x="200" y="200" width="100" height="60" rx="5" fill="#64748B" />
  <rect x="210" y="210" width="80" height="40" rx="2" fill="#0EA5E9" />
  <rect x="170" y="260" width="160" height="10" rx="5" fill="#64748B" />
  
  <!-- Code on Screen -->
  <rect x="220" y="215" width="30" height="3" rx="1" fill="white" />
  <rect x="220" y="223" width="40" height="3" rx="1" fill="white" />
  <rect x="220" y="231" width="20" height="3" rx="1" fill="white" />
  <rect x="220" y="239" width="35" height="3" rx="1" fill="white" />
  
  <!-- Coffee Cup -->
  <rect x="330" y="220" width="20" height="30" rx="5" fill="#475569" />
  <path d="M350 225H355C358.314 225 361 227.686 361 231V231C361 234.314 358.314 237 355 237H350V225Z" fill="#475569" />
  <rect x="335" y="215" width="10" height="5" rx="2" fill="#CBD5E1" />
  <rect x="335" y="220" width="10" height="5" fill="#10B981" />
  
  <!-- Plant -->
  <rect x="120" y="220" width="30" height="30" rx="5" fill="#64748B" />
  <path d="M135 220C135 220 125 200 135 190C145 180 155 200 135 220Z" fill="#10B981" />
  <path d="M135 220C135 220 145 200 135 190C125 180 115 200 135 220Z" fill="#10B981" />
  <path d="M135 220C135 220 135 200 145 190C155 180 165 200 135 220Z" fill="#10B981" />
  
  <!-- Decorative Elements -->
  <!-- Floating Icons -->
  <!-- Code Icon -->
  <rect x="400" y="100" width="40" height="40" rx="20" fill="#6366F1" opacity="0.8" />
  <path d="M415 115L405 120L415 125" stroke="white" stroke-width="2" stroke-linecap="round" stroke-linejoin="round" />
  <path d="M425 115L435 120L425 125" stroke="white" stroke-width="2" stroke-linecap="round" stroke-linejoin="round" />
  
  <!-- Web Icon -->
  <rect x="60" y="80" width="40" height="40" rx="20" fill="#10B981" opacity="0.8" />
  <circle cx="80" cy="100" r="10" stroke="white" stroke-width="2" />
  <path d="M80 90V110" stroke="white" stroke-width="2" />
  <path d="M70 100H90" stroke="white" stroke-width="2" />
  
  <!-- Blockchain Icon -->
  <rect x="100" y="150" width="40" height="40" rx="20" fill="#6366F1" opacity="0.8" />
  <rect x="110" y="165" width="20" height="10" rx="2" stroke="white" stroke-width="2" />
  <path d="M120 165V160" stroke="white" stroke-width="2" />
  <path d="M120 175V180" stroke="white" stroke-width="2" />
  <path d="M110 170H105" stroke="white" stroke-width="2" />
  <path d="M130 170H135" stroke="white" stroke-width="2" />
  
  <!-- UI/UX Icon -->
  <rect x="360" y="170" width="40" height="40" rx="20" fill="#10B981" opacity="0.8" />
  <rect x="370" y="180" width="20" height="15" rx="2" stroke="white" stroke-width="2" />
  <path d="M375 195V200" stroke="white" stroke-width="2" />
  <path d="M385 195V200" stroke="white" stroke-width="2" />
  <path d="M375 200H385" stroke="white" stroke-width="2" />
  
  <!-- Connecting Lines -->
  <path d="M100 100L120 150" stroke="#CBD5E1" stroke-width="2" stroke-dasharray="4 4" />
  <path d="M140 150L360 170" stroke="#CBD5E1" stroke-width="2" stroke-dasharray="4 4" />
  <path d="M400 170L400 140" stroke="#CBD5E1" stroke-width="2" stroke-dasharray="4 4" />
  <path d="M400 100L380 100" stroke="#CBD5E1" stroke-width="2" stroke-dasharray="4 4" />
  <path d="M100 100L250 100" stroke="#CBD5E1" stroke-width="2" stroke-dasharray="4 4" />
  <path d="M250 100L250 190" stroke="#CBD5E1" stroke-width="2" stroke-dasharray="4 4" />
</svg>