<svg width="32" height="32" viewBox="0 0 32 32" fill="none" xmlns="http://www.w3.org/2000/svg">
  <rect width="32" height="32" rx="8" fill="url(#paint0_linear)" />
  <path d="M11.5 20.5C10.5 20.5 9.66667 20.25 9 19.75C8.33333 19.25 7.83333 18.5833 7.5 17.75C7.16667 16.9167 7 16 7 15C7 14 7.16667 13.0833 7.5 12.25C7.83333 11.4167 8.33333 10.75 9 10.25C9.66667 9.75 10.5 9.5 11.5 9.5C12.3333 9.5 13.0417 9.70833 13.625 10.125C14.2083 10.5417 14.6667 11.1667 15 12H15.25V10H17.5V15.25H15.25V13.25H15C14.6667 12.4167 14.2083 11.7917 13.625 11.375C13.0417 10.9583 12.3333 10.75 11.5 10.75C10.5 10.75 9.75 11.125 9.25 11.875C8.75 12.625 8.5 13.6667 8.5 15C8.5 16.3333 8.75 17.375 9.25 18.125C9.75 18.875 10.5 19.25 11.5 19.25C12.3333 19.25 13.0417 19.0417 13.625 18.625C14.2083 18.2083 14.6667 17.5833 15 16.75H16.75C16.4167 18.0833 15.7917 19.125 14.875 19.875C13.9583 20.625 12.8333 21 11.5 20.5Z" fill="white"/>
  <path d="M24.5 20.5C23.5 20.5 22.6667 20.25 22 19.75C21.3333 19.25 20.8333 18.5833 20.5 17.75C20.1667 16.9167 20 16 20 15C20 14 20.1667 13.0833 20.5 12.25C20.8333 11.4167 21.3333 10.75 22 10.25C22.6667 9.75 23.5 9.5 24.5 9.5C25.3333 9.5 26.0417 9.70833 26.625 10.125C27.2083 10.5417 27.6667 11.1667 28 12H28.25V10H30.5V20H28.25V18H28C27.6667 18.8333 27.2083 19.4583 26.625 19.875C26.0417 20.2917 25.3333 20.5 24.5 20.5ZM24.5 19.25C25.5 19.25 26.25 18.875 26.75 18.125C27.25 17.375 27.5 16.3333 27.5 15C27.5 13.6667 27.25 12.625 26.75 11.875C26.25 11.125 25.5 10.75 24.5 10.75C23.5 10.75 22.75 11.125 22.25 11.875C21.75 12.625 21.5 13.6667 21.5 15C21.5 16.3333 21.75 17.375 22.25 18.125C22.75 18.875 23.5 19.25 24.5 19.25Z" fill="white"/>
  <defs>
    <linearGradient id="paint0_linear" x1="0" y1="0" x2="32" y2="32" gradientUnits="userSpaceOnUse">
      <stop stop-color="#6366F1" />
      <stop offset="1" stop-color="#10B981" />
    </linearGradient>
  </defs>
</svg>