<svg width="80" height="80" viewBox="0 0 80 80" fill="none" xmlns="http://www.w3.org/2000/svg">
  <!-- Background Circle with Gradient -->
  <circle cx="40" cy="40" r="40" fill="url(#discordGradient)" />
  
  <!-- Discord Bot Icon -->
  <g transform="translate(16, 16) scale(0.6)">
    <!-- Discord Logo Stylized -->
    <path d="M65 25C65 25 57.5 19 48 18L46.5 21C37.5 19 29 19 20 21L18.5 18C9 19 1.5 25 1.5 25C1.5 25 -6 45.5 5.5 65C5.5 65 13 70.5 23.5 71L27 66.5C31 68.5 35.5 69.5 40 69.5C44.5 69.5 49 68.5 53 66.5L56.5 71C67 70.5 74.5 65 74.5 65C86 45.5 78.5 25 78.5 25" fill="white" opacity="0.9" />
    
    <!-- Bot Face -->
    <circle cx="25" cy="45" r="7" fill="#5865F2" />
    <circle cx="55" cy="45" r="7" fill="#5865F2" />
    
    <!-- Robot Elements -->
    <rect x="35" y="50" width="10" height="2" rx="1" fill="#5865F2" />
    <path d="M30 35H50" stroke="#5865F2" stroke-width="2" stroke-linecap="round" />
    
    <!-- Antenna -->
    <path d="M40 15V25" stroke="white" stroke-width="3" stroke-linecap="round" />
    <circle cx="40" cy="12" r="4" fill="white" />
    
    <!-- Code/Command Symbols -->
    <path d="M15 60L10 55L15 50" stroke="#5865F2" stroke-width="2" stroke-linecap="round" stroke-linejoin="round" />
    <path d="M65 60L70 55L65 50" stroke="#5865F2" stroke-width="2" stroke-linecap="round" stroke-linejoin="round" />
  </g>
  
  <!-- Gradient Definition -->
  <defs>
    <linearGradient id="discordGradient" x1="0" y1="0" x2="80" y2="80" gradientUnits="userSpaceOnUse">
      <stop stop-color="#5865F2" />
      <stop offset="1" stop-color="#EB459E" />
    </linearGradient>
  </defs>
</svg>