<svg width="80" height="80" viewBox="0 0 80 80" fill="none" xmlns="http://www.w3.org/2000/svg">
  <!-- Background Circle with Gradient -->
  <circle cx="40" cy="40" r="40" fill="url(#nftGradient)" />
  
  <!-- NFT Icon -->
  <g transform="translate(16, 16) scale(0.6)">
    <!-- NFT Frame -->
    <rect x="10" y="10" width="60" height="60" rx="5" stroke="white" stroke-width="4" fill="none" />
    
    <!-- NFT Image (Abstract Art) -->
    <rect x="15" y="15" width="50" height="50" rx="3" fill="#1E293B" />
    
    <!-- Abstract Art Elements -->
    <circle cx="30" cy="30" r="10" fill="#6366F1" />
    <rect x="45" y="25" width="15" height="15" rx="2" fill="#10B981" />
    <path d="M20 45L40 65L60 45" stroke="#F59E0B" stroke-width="4" stroke-linecap="round" stroke-linejoin="round" />
    
    <!-- Verification Badge -->
    <circle cx="60" cy="20" r="8" fill="white" />
    <path d="M55 20L58 23L65 16" stroke="#10B981" stroke-width="2" stroke-linecap="round" stroke-linejoin="round" />
    
    <!-- Blockchain Connection -->
    <path d="M10 80L10 90" stroke="white" stroke-width="2" stroke-dasharray="2 2" />
    <path d="M25 80L25 90" stroke="white" stroke-width="2" stroke-dasharray="2 2" />
    <path d="M40 80L40 90" stroke="white" stroke-width="2" stroke-dasharray="2 2" />
    <path d="M55 80L55 90" stroke="white" stroke-width="2" stroke-dasharray="2 2" />
    <path d="M70 80L70 90" stroke="white" stroke-width="2" stroke-dasharray="2 2" />
    <rect x="5" y="90" width="70" height="10" rx="2" fill="white" opacity="0.3" />
  </g>
  
  <!-- Gradient Definition -->
  <defs>
    <linearGradient id="nftGradient" x1="0" y1="0" x2="80" y2="80" gradientUnits="userSpaceOnUse">
      <stop stop-color="#6366F1" />
      <stop offset="1" stop-color="#F59E0B" />
    </linearGradient>
  </defs>
</svg>