<svg width="80" height="80" viewBox="0 0 80 80" fill="none" xmlns="http://www.w3.org/2000/svg">
  <!-- Background Circle with Gradient -->
  <circle cx="40" cy="40" r="40" fill="url(#backendGradient)" />
  
  <!-- Backend Development Icon -->
  <g transform="translate(16, 16) scale(0.6)">
    <!-- Server Racks -->
    <rect x="15" y="10" width="50" height="10" rx="2" fill="white" opacity="0.9" />
    <rect x="20" y="15" width="5" height="5" rx="1" fill="#7C3AED" />
    <rect x="30" y="15" width="5" height="5" rx="1" fill="#7C3AED" />
    <rect x="55" y="12.5" width="5" height="5" rx="1" fill="#7C3AED" />
    
    <rect x="15" y="25" width="50" height="10" rx="2" fill="white" opacity="0.9" />
    <rect x="20" y="30" width="5" height="5" rx="1" fill="#7C3AED" />
    <rect x="30" y="30" width="5" height="5" rx="1" fill="#7C3AED" />
    <rect x="55" y="27.5" width="5" height="5" rx="1" fill="#7C3AED" />
    
    <rect x="15" y="40" width="50" height="10" rx="2" fill="white" opacity="0.9" />
    <rect x="20" y="45" width="5" height="5" rx="1" fill="#7C3AED" />
    <rect x="30" y="45" width="5" height="5" rx="1" fill="#7C3AED" />
    <rect x="55" y="42.5" width="5" height="5" rx="1" fill="#7C3AED" />
    
    <!-- Database -->
    <path d="M40 60C47.5 60 55 57.5 55 55V75C55 77.5 47.5 80 40 80C32.5 80 25 77.5 25 75V55C25 57.5 32.5 60 40 60Z" fill="white" opacity="0.9" />
    <ellipse cx="40" cy="55" rx="15" ry="5" fill="white" opacity="0.9" />
    <path d="M30 60V75" stroke="#7C3AED" stroke-width="1" stroke-linecap="round" stroke-dasharray="2 2" />
    <path d="M50 60V75" stroke="#7C3AED" stroke-width="1" stroke-linecap="round" stroke-dasharray="2 2" />
    <path d="M35 65H45" stroke="#7C3AED" stroke-width="2" stroke-linecap="round" />
    <path d="M35 70H45" stroke="#7C3AED" stroke-width="2" stroke-linecap="round" />
    
    <!-- Connection Lines -->
    <path d="M40 10V5" stroke="white" stroke-width="2" stroke-linecap="round" />
    <path d="M40 25V20" stroke="white" stroke-width="2" stroke-linecap="round" />
    <path d="M40 40V35" stroke="white" stroke-width="2" stroke-linecap="round" />
    <path d="M40 55V50" stroke="white" stroke-width="2" stroke-linecap="round" />
    
    <!-- API Endpoints -->
    <rect x="5" y="20" width="5" height="20" rx="2.5" fill="white" opacity="0.7" />
    <path d="M10 25H15" stroke="white" stroke-width="2" stroke-linecap="round" />
    <path d="M10 35H15" stroke="white" stroke-width="2" stroke-linecap="round" />
    
    <rect x="70" y="20" width="5" height="20" rx="2.5" fill="white" opacity="0.7" />
    <path d="M65 25H70" stroke="white" stroke-width="2" stroke-linecap="round" />
    <path d="M65 35H70" stroke="white" stroke-width="2" stroke-linecap="round" />
  </g>
  
  <!-- Gradient Definition -->
  <defs>
    <linearGradient id="backendGradient" x1="0" y1="0" x2="80" y2="80" gradientUnits="userSpaceOnUse">
      <stop stop-color="#7C3AED" />
      <stop offset="1" stop-color="#4F46E5" />
    </linearGradient>
  </defs>
</svg>