<svg width="80" height="80" viewBox="0 0 80 80" fill="none" xmlns="http://www.w3.org/2000/svg">
  <!-- Background Circle with Gradient -->
  <circle cx="40" cy="40" r="40" fill="url(#botsGradient)" />
  
  <!-- Bot Development Icon -->
  <g transform="translate(16, 16) scale(0.6)">
    <!-- Robot Head -->
    <rect x="20" y="20" width="40" height="35" rx="5" fill="white" opacity="0.9" />
    
    <!-- Robot Eyes -->
    <circle cx="30" cy="35" r="5" fill="#3B82F6" />
    <circle cx="50" cy="35" r="5" fill="#3B82F6" />
    <circle cx="30" cy="35" r="2" fill="white" opacity="0.7" />
    <circle cx="50" cy="35" r="2" fill="white" opacity="0.7" />
    
    <!-- Robot Mouth -->
    <rect x="30" y="45" width="20" height="3" rx="1.5" fill="#3B82F6" />
    
    <!-- Robot Antenna -->
    <path d="M40 20V10" stroke="white" stroke-width="2" stroke-linecap="round" />
    <circle cx="40" cy="7" r="3" fill="white" />
    
    <!-- Robot Body -->
    <rect x="25" y="55" width="30" height="20" rx="5" fill="white" opacity="0.9" />
    <rect x="35" y="55" width="10" height="5" fill="#3B82F6" opacity="0.7" />
    
    <!-- Robot Arms -->
    <path d="M25 60H15C12.5 60 10 62.5 10 65C10 67.5 12.5 70 15 70H20" stroke="white" stroke-width="3" stroke-linecap="round" stroke-linejoin="round" />
    <path d="M55 60H65C67.5 60 70 62.5 70 65C70 67.5 67.5 70 65 70H60" stroke="white" stroke-width="3" stroke-linecap="round" stroke-linejoin="round" />
    
    <!-- Robot Legs -->
    <path d="M30 75V85" stroke="white" stroke-width="3" stroke-linecap="round" />
    <path d="M50 75V85" stroke="white" stroke-width="3" stroke-linecap="round" />
    <rect x="25" y="85" width="10" height="5" rx="2" fill="white" opacity="0.9" />
    <rect x="45" y="85" width="10" height="5" rx="2" fill="white" opacity="0.9" />
    
    <!-- Code/Command Symbols -->
    <path d="M15 30L10 35L15 40" stroke="#3B82F6" stroke-width="2" stroke-linecap="round" stroke-linejoin="round" />
    <path d="M65 30L70 35L65 40" stroke="#3B82F6" stroke-width="2" stroke-linecap="round" stroke-linejoin="round" />
    
    <!-- Circuit Board Elements -->
    <path d="M30 65H50" stroke="#3B82F6" stroke-width="1.5" stroke-linecap="round" stroke-dasharray="2 2" />
    <circle cx="35" cy="65" r="2" fill="#3B82F6" />
    <circle cx="45" cy="65" r="2" fill="#3B82F6" />
  </g>
  
  <!-- Gradient Definition -->
  <defs>
    <linearGradient id="botsGradient" x1="0" y1="0" x2="80" y2="80" gradientUnits="userSpaceOnUse">
      <stop stop-color="#3B82F6" />
      <stop offset="1" stop-color="#8B5CF6" />
    </linearGradient>
  </defs>
</svg>