<svg width="40" height="40" viewBox="0 0 40 40" fill="none" xmlns="http://www.w3.org/2000/svg">
  <path d="M37.5 8.75C36.25 9.375 34.875 9.75 33.5 9.875C35 9 36.125 7.5 36.625 5.75C35.25 6.625 33.75 7.25 32.125 7.625C30.875 6.125 29 5.25 27 5.25C23 5.25 19.75 8.5 19.75 12.5C19.75 13.125 19.875 13.75 20 14.25C14 14 8.625 11.125 5 6.75C4.25 7.875 3.875 9.125 3.875 10.5C3.875 13 5.125 15.25 7 16.5C5.875 16.5 4.875 16.125 3.875 15.75V15.875C3.875 19.375 6.375 22.25 9.75 22.875C9.125 23.125 8.375 23.25 7.625 23.25C7.125 23.25 6.625 23.125 6.125 23C7.125 25.875 9.75 27.875 12.875 28C10.5 29.75 7.5 30.75 4.25 30.75C3.625 30.75 3 30.75 2.5 30.625C5.625 32.5 9.375 33.5 13.375 33.5C27 33.5 34.5 22.375 34.5 12.75V11.75C35.875 10.75 37 9.5 37.5 8.75Z" fill="currentColor"/>
</svg>