<svg width="40" height="40" viewBox="0 0 40 40" fill="none" xmlns="http://www.w3.org/2000/svg">
  <path d="M35 0H5C2.25 0 0 2.25 0 5V35C0 37.75 2.25 40 5 40H35C37.75 40 40 37.75 40 35V5C40 2.25 37.75 0 35 0ZM12.5 35H6.25V15H12.5V35ZM9.375 12.5C7.375 12.5 5.75 10.875 5.75 8.875C5.75 6.875 7.375 5.25 9.375 5.25C11.375 5.25 13 6.875 13 8.875C13 10.875 11.375 12.5 9.375 12.5ZM35 35H28.75V24.375C28.75 20.375 25 20.75 25 24.375V35H18.75V15H25V18.125C27.125 14.125 35 13.875 35 23.125V35Z" fill="currentColor"/>
</svg>