<svg width="40" height="40" viewBox="0 0 40 40" fill="none" xmlns="http://www.w3.org/2000/svg">
  <path fill-rule="evenodd" clip-rule="evenodd" d="M20 0C8.95 0 0 8.95 0 20C0 28.85 5.725 36.325 13.675 38.975C14.675 39.15 15.05 38.55 15.05 38.025C15.05 37.55 15.025 36.025 15.025 34.35C10 35.225 8.7 33.075 8.3 31.95C8.075 31.4 7.1 29.6 6.25 29.125C5.55 28.75 4.55 27.875 6.225 27.85C7.8 27.825 8.925 29.3 9.3 29.875C11.1 32.9 13.975 32.025 15.125 31.5C15.3 30.2 15.825 29.325 16.4 28.825C11.95 28.325 7.3 26.6 7.3 18.95C7.3 16.775 8.075 14.975 9.35 13.6C9.15 13.1 8.45 11.05 9.55 8.3C9.55 8.3 11.225 7.775 15.05 10.35C16.65 9.9 18.35 9.675 20.05 9.675C21.75 9.675 23.45 9.9 25.05 10.35C28.875 7.75 30.55 8.3 30.55 8.3C31.65 11.05 30.95 13.1 30.75 13.6C32.025 14.975 32.8 16.75 32.8 18.95C32.8 26.625 28.125 28.325 23.675 28.825C24.4 29.45 25.025 30.65 25.025 32.525C25.025 35.2 25 37.35 25 38.025C25 38.55 25.375 39.175 26.375 38.975C34.275 36.325 40 28.825 40 20C40 8.95 31.05 0 20 0Z" fill="currentColor"/>
</svg>