<svg width="40" height="40" viewBox="0 0 40 40" fill="none" xmlns="http://www.w3.org/2000/svg">
  <!-- Sun Icon -->
  <g class="sun-icon">
    <circle cx="20" cy="20" r="5" stroke="currentColor" stroke-width="2" />
    <path d="M20 10V7" stroke="currentColor" stroke-width="2" stroke-linecap="round" />
    <path d="M20 33V30" stroke="currentColor" stroke-width="2" stroke-linecap="round" />
    <path d="M30 20H33" stroke="currentColor" stroke-width="2" stroke-linecap="round" />
    <path d="M7 20H10" stroke="currentColor" stroke-width="2" stroke-linecap="round" />
    <path d="M27.071 12.929L29.192 10.808" stroke="currentColor" stroke-width="2" stroke-linecap="round" />
    <path d="M10.808 29.192L12.929 27.071" stroke="currentColor" stroke-width="2" stroke-linecap="round" />
    <path d="M27.071 27.071L29.192 29.192" stroke="currentColor" stroke-width="2" stroke-linecap="round" />
    <path d="M10.808 10.808L12.929 12.929" stroke="currentColor" stroke-width="2" stroke-linecap="round" />
  </g>
  
  <!-- Moon Icon -->
  <g class="moon-icon">
    <path d="M28 20C28 14.477 23.523 10 18 10C12.477 10 8 14.477 8 20C8 25.523 12.477 30 18 30C18.954 30 19.874 29.874 20.75 29.636C18.501 27.898 17 25.123 17 22C17 16.477 21.477 12 27 12C27.35 12 27.693 12.021 28.03 12.062C28.01 11.375 28 10.688 28 10" stroke="currentColor" stroke-width="2" stroke-linecap="round" />
  </g>
</svg>